<mxfile host="app.diagrams.net" modified="2024-05-21T16:10:09.295Z" agent="Mozilla/5.0 (X11; Linux x86_64) AppleWebKit/537.36 (KHTML, like Gecko) Chrome/124.0.0.0 Safari/537.36" etag="ZxZRCTHi-kxhlzk7b9_Z" version="24.4.4" type="device">
  <diagram name="PÃ¡gina-1" id="9eBILa8281JaQ4yUkDbp">
    <mxGraphModel dx="1434" dy="786" grid="1" gridSize="10" guides="1" tooltips="1" connect="1" arrows="1" fold="1" page="1" pageScale="1" pageWidth="827" pageHeight="1169" math="0" shadow="0">
      <root>
        <mxCell id="0" />
        <mxCell id="1" parent="0" />
        <mxCell id="dopCU4gkJe7Sfp6IDYO1-1" value="&lt;b&gt;&lt;font style=&quot;font-size: 30px;&quot;&gt;Rocket.Chat&lt;/font&gt;&lt;/b&gt;" style="text;html=1;align=center;verticalAlign=middle;resizable=0;points=[];autosize=1;strokeColor=none;fillColor=none;" vertex="1" parent="1">
          <mxGeometry x="314" y="350" width="200" height="50" as="geometry" />
        </mxCell>
      </root>
    </mxGraphModel>
  </diagram>
</mxfile>
